<svg width="163" height="67" viewBox="0 0 163 67" fill="none" xmlns="http://www.w3.org/2000/svg">
 <g clip-path="url(#clip0)">
  <path
   d="M71.4626 13.8461H56.9981L49.7659 26.5865L56.9981 39.3269H71.4626L78.6948 26.5865L71.4626 13.8461ZM64.2303 33.0529C60.7087 33.0529 57.8726 30.1442 57.8726 26.5865C57.8726 23.0288 60.7324 20.1202 64.2303 20.1202C67.7519 20.1202 70.5881 23.0288 70.5881 26.5865C70.5881 30.1442 67.7519 33.0529 64.2303 33.0529Z"
   fill="#F9AD3C" />
  <path
   d="M113.154 5.84129C113.154 3.62976 114.856 1.89899 117.219 1.89899C119.536 1.89899 121.285 3.62976 121.285 5.84129C121.285 8.05283 119.536 9.7836 117.219 9.7836C114.856 9.7836 113.154 8.05283 113.154 5.84129ZM113.863 12.9567H120.481V39.5432H113.863V12.9567Z"
   fill="#00A4A6" />
  <path
   d="M128.021 6.37018H128.21C131.778 6.37018 134.686 9.30287 134.686 12.9567H137.64C139.247 12.9567 140.547 14.2788 140.547 15.9134V18.4856H134.686V31.3461C134.686 33.125 135.395 33.8942 137.474 33.8942H138.798C139.767 33.8942 140.547 34.6875 140.547 35.6731V39.5673H136.387C131.377 39.5673 128.044 37.4038 128.044 31.3221V6.37018H128.021Z"
   fill="#049FA0" />
  <path
   d="M162.858 18.3654L151.348 34.0144H160.778C162.007 34.0144 163.024 35.024 163.024 36.2981V39.5433H146.007C144.825 39.5433 143.856 38.5577 143.856 37.3558V34.1106L155.271 18.4615H146.125C144.896 18.4615 143.879 17.4519 143.879 16.1779V12.9567H160.707C161.889 12.9567 162.858 13.9423 162.858 15.1442V18.3654V18.3654Z"
   fill="#049FA0" />
  <path
   d="M39.3429 24.4952C39.3429 20.1923 36.9794 17.9327 33.4106 17.9327C29.7945 17.9327 27.431 20.1923 27.431 24.4952V38.5336C27.431 39.0625 27.0056 39.4952 26.4856 39.4952H21.6405C21.1205 39.4952 20.6951 39.0625 20.6951 38.5336V24.4952C20.6951 20.1923 18.3316 17.9327 14.7628 17.9327C11.0994 17.9327 8.73591 20.1923 8.73591 24.4952V38.5336C8.73591 39.0625 8.31048 39.4952 7.79052 39.4952H2.94539C2.42543 39.4952 2 39.0625 2 38.5336V13.2932C2 12.7644 2.42543 12.3317 2.94539 12.3317H5.52158C7.29419 12.3317 8.75954 13.798 8.75954 15.625C10.4376 13.3654 13.2974 11.9471 16.6063 11.9471C20.246 11.9471 23.3422 13.3413 25.2566 15.9855C25.6348 16.4904 26.3674 16.4904 26.7456 15.9855C28.6364 13.5336 31.7325 11.9471 35.1359 11.9471C41.541 11.9471 46.0788 16.0577 46.0788 23.5577V38.5336C46.0788 39.0625 45.6534 39.4952 45.1334 39.4952H40.2883C39.7683 39.4952 39.3429 39.0625 39.3429 38.5336V24.4952Z"
   fill="#049FA0" />
  <path
   d="M96.799 13.101C93.892 12.9567 91.1976 13.75 88.9523 15.2163V6.17789C88.9523 2.76442 86.2343 0 82.8782 0V26.4183C82.8782 26.4663 82.8782 26.4904 82.8782 26.5385C82.8782 26.5865 82.8782 26.6106 82.8782 26.6587V27.4038H82.9018C83.3272 34.4471 89.0941 40 96.1136 40C103.629 40 109.68 33.6298 109.349 25.9135C109.018 19.0385 103.559 13.4615 96.799 13.101ZM96.2082 33.2692C92.5211 33.2692 89.5195 30.2163 89.5195 26.4663C89.5195 22.7163 92.5211 19.6635 96.2082 19.6635C99.8952 19.6635 102.897 22.7163 102.897 26.4663C102.897 30.2163 99.8952 33.2692 96.2082 33.2692Z"
   fill="#049FA0" />
 </g>
 <path
  d="M8.72313 53.82C9.22979 53.9 9.68979 54.1067 10.1031 54.44C10.5298 54.7733 10.8631 55.1867 11.1031 55.68C11.3565 56.1733 11.4831 56.7 11.4831 57.26C11.4831 57.9667 11.3031 58.6067 10.9431 59.18C10.5831 59.74 10.0565 60.1867 9.36313 60.52C8.68313 60.84 7.87646 61 6.94313 61H1.74313V47.06H6.74313C7.68979 47.06 8.49646 47.22 9.16313 47.54C9.82979 47.8467 10.3298 48.2667 10.6631 48.8C10.9965 49.3333 11.1631 49.9333 11.1631 50.6C11.1631 51.4267 10.9365 52.1133 10.4831 52.66C10.0431 53.1933 9.45646 53.58 8.72313 53.82ZM3.56313 53.08H6.62313C7.47646 53.08 8.13646 52.88 8.60313 52.48C9.06979 52.08 9.30313 51.5267 9.30313 50.82C9.30313 50.1133 9.06979 49.56 8.60313 49.16C8.13646 48.76 7.46313 48.56 6.58313 48.56H3.56313V53.08ZM6.78313 59.5C7.68979 59.5 8.39646 59.2867 8.90313 58.86C9.40979 58.4333 9.66313 57.84 9.66313 57.08C9.66313 56.3067 9.39646 55.7 8.86313 55.26C8.32979 54.8067 7.61646 54.58 6.72313 54.58H3.56313V59.5H6.78313ZM24.0088 55.1C24.0088 55.4467 23.9888 55.8133 23.9488 56.2H15.1888C15.2554 57.28 15.6221 58.1267 16.2888 58.74C16.9688 59.34 17.7888 59.64 18.7488 59.64C19.5354 59.64 20.1888 59.46 20.7088 59.1C21.2421 58.7267 21.6154 58.2333 21.8288 57.62H23.7888C23.4954 58.6733 22.9088 59.5333 22.0288 60.2C21.1488 60.8533 20.0554 61.18 18.7488 61.18C17.7088 61.18 16.7754 60.9467 15.9488 60.48C15.1354 60.0133 14.4954 59.3533 14.0288 58.5C13.5621 57.6333 13.3288 56.6333 13.3288 55.5C13.3288 54.3667 13.5554 53.3733 14.0088 52.52C14.4621 51.6667 15.0954 51.0133 15.9088 50.56C16.7354 50.0933 17.6821 49.86 18.7488 49.86C19.7888 49.86 20.7088 50.0867 21.5088 50.54C22.3088 50.9933 22.9221 51.62 23.3488 52.42C23.7888 53.2067 24.0088 54.1 24.0088 55.1ZM22.1288 54.72C22.1288 54.0267 21.9754 53.4333 21.6688 52.94C21.3621 52.4333 20.9421 52.0533 20.4088 51.8C19.8888 51.5333 19.3088 51.4 18.6688 51.4C17.7488 51.4 16.9621 51.6933 16.3088 52.28C15.6688 52.8667 15.3021 53.68 15.2088 54.72H22.1288ZM31.7511 49.84C33.0844 49.84 34.1644 50.2467 34.9911 51.06C35.8178 51.86 36.2311 53.02 36.2311 54.54V61H34.4311V54.8C34.4311 53.7067 34.1578 52.8733 33.6111 52.3C33.0644 51.7133 32.3178 51.42 31.3711 51.42C30.4111 51.42 29.6444 51.72 29.0711 52.32C28.5111 52.92 28.2311 53.7933 28.2311 54.94V61H26.4111V50.04H28.2311V51.6C28.5911 51.04 29.0778 50.6067 29.6911 50.3C30.3178 49.9933 31.0044 49.84 31.7511 49.84ZM43.7241 49.86C44.6707 49.86 45.4974 50.0667 46.2041 50.48C46.9241 50.8933 47.4574 51.4133 47.8041 52.04V50.04H49.6441V61.24C49.6441 62.24 49.4307 63.1267 49.0041 63.9C48.5774 64.6867 47.9641 65.3 47.1641 65.74C46.3774 66.18 45.4574 66.4 44.4041 66.4C42.9641 66.4 41.7641 66.06 40.8041 65.38C39.8441 64.7 39.2774 63.7733 39.1041 62.6H40.9041C41.1041 63.2667 41.5174 63.8 42.1441 64.2C42.7707 64.6133 43.5241 64.82 44.4041 64.82C45.4041 64.82 46.2174 64.5067 46.8441 63.88C47.4841 63.2533 47.8041 62.3733 47.8041 61.24V58.94C47.4441 59.58 46.9107 60.1133 46.2041 60.54C45.4974 60.9667 44.6707 61.18 43.7241 61.18C42.7507 61.18 41.8641 60.94 41.0641 60.46C40.2774 59.98 39.6574 59.3067 39.2041 58.44C38.7507 57.5733 38.5241 56.5867 38.5241 55.48C38.5241 54.36 38.7507 53.38 39.2041 52.54C39.6574 51.6867 40.2774 51.0267 41.0641 50.56C41.8641 50.0933 42.7507 49.86 43.7241 49.86ZM47.8041 55.5C47.8041 54.6733 47.6374 53.9533 47.3041 53.34C46.9707 52.7267 46.5174 52.26 45.9441 51.94C45.3841 51.6067 44.7641 51.44 44.0841 51.44C43.4041 51.44 42.7841 51.6 42.2241 51.92C41.6641 52.24 41.2174 52.7067 40.8841 53.32C40.5507 53.9333 40.3841 54.6533 40.3841 55.48C40.3841 56.32 40.5507 57.0533 40.8841 57.68C41.2174 58.2933 41.6641 58.7667 42.2241 59.1C42.7841 59.42 43.4041 59.58 44.0841 59.58C44.7641 59.58 45.3841 59.42 45.9441 59.1C46.5174 58.7667 46.9707 58.2933 47.3041 57.68C47.6374 57.0533 47.8041 56.3267 47.8041 55.5ZM58.8397 61L54.5397 56.16V61H52.7197V46.2H54.5397V54.9L58.7597 50.04H61.2997L56.1397 55.5L61.3197 61H58.8397ZM73.0127 55.1C73.0127 55.4467 72.9927 55.8133 72.9527 56.2H64.1927C64.2593 57.28 64.626 58.1267 65.2927 58.74C65.9727 59.34 66.7927 59.64 67.7527 59.64C68.5393 59.64 69.1927 59.46 69.7127 59.1C70.246 58.7267 70.6193 58.2333 70.8327 57.62H72.7927C72.4993 58.6733 71.9127 59.5333 71.0327 60.2C70.1527 60.8533 69.0593 61.18 67.7527 61.18C66.7127 61.18 65.7793 60.9467 64.9527 60.48C64.1393 60.0133 63.4993 59.3533 63.0327 58.5C62.566 57.6333 62.3327 56.6333 62.3327 55.5C62.3327 54.3667 62.5593 53.3733 63.0127 52.52C63.466 51.6667 64.0993 51.0133 64.9127 50.56C65.7393 50.0933 66.686 49.86 67.7527 49.86C68.7927 49.86 69.7127 50.0867 70.5127 50.54C71.3127 50.9933 71.926 51.62 72.3527 52.42C72.7927 53.2067 73.0127 54.1 73.0127 55.1ZM71.1327 54.72C71.1327 54.0267 70.9793 53.4333 70.6727 52.94C70.366 52.4333 69.946 52.0533 69.4127 51.8C68.8927 51.5333 68.3127 51.4 67.6727 51.4C66.7527 51.4 65.966 51.6933 65.3127 52.28C64.6727 52.8667 64.306 53.68 64.2127 54.72H71.1327ZM77.235 46.2V61H75.415V46.2H77.235Z"
  fill="#F9AD3C" />
 <defs>
  <clipPath id="clip0">
   <rect width="161" height="40" fill="white" transform="translate(2)" />
  </clipPath>
 </defs>
</svg>