<svg width="217" height="43" viewBox="0 0 217 43" fill="none" xmlns="http://www.w3.org/2000/svg">
<g clip-path="url(#clip0)">
<path d="M60.8337 12.4615H48.166L41.8322 23.9279L48.166 35.3942H60.8337L67.1675 23.9279L60.8337 12.4615ZM54.4999 29.7476C51.4157 29.7476 48.9319 27.1298 48.9319 23.9279C48.9319 20.7259 51.4364 18.1082 54.4999 18.1082C57.584 18.1082 60.0678 20.7259 60.0678 23.9279C60.0678 27.1298 57.584 29.7476 54.4999 29.7476Z" fill="#F9AD3C"/>
<path d="M97.3463 5.25718C97.3463 3.2668 98.8366 1.70911 100.906 1.70911C102.935 1.70911 104.467 3.2668 104.467 5.25718C104.467 7.24757 102.935 8.80526 100.906 8.80526C98.8366 8.80526 97.3463 7.24757 97.3463 5.25718ZM97.9672 11.661H103.763V35.5889H97.9672V11.661Z" fill="#00A4A6"/>
<path d="M110.366 5.73318H110.531C113.657 5.73318 116.203 8.37261 116.203 11.6611H118.79C120.198 11.6611 121.336 12.851 121.336 14.3221V16.637H116.203V28.2115C116.203 29.8125 116.824 30.5048 118.645 30.5048H119.804C120.653 30.5048 121.336 31.2188 121.336 32.1058V35.6106H117.693C113.305 35.6106 110.387 33.6635 110.387 28.1899V5.73318H110.366Z" fill="#049FA0"/>
<path d="M140.876 16.5289L130.796 30.613H139.054C140.131 30.613 141.021 31.5217 141.021 32.6683V35.589H126.118C125.083 35.589 124.234 34.7019 124.234 33.6202V30.6995L134.232 16.6154H126.221C125.145 16.6154 124.255 15.7067 124.255 14.5601V11.6611H138.992C140.027 11.6611 140.876 12.5481 140.876 13.6298V16.5289V16.5289Z" fill="#049FA0"/>
<path d="M32.7041 22.0457C32.7041 18.1731 30.6342 16.1394 27.5087 16.1394C24.3417 16.1394 22.2719 18.1731 22.2719 22.0457V34.6803C22.2719 35.1562 21.8993 35.5457 21.4439 35.5457H17.2007C16.7453 35.5457 16.3727 35.1562 16.3727 34.6803V22.0457C16.3727 18.1731 14.3028 16.1394 11.1773 16.1394C7.96903 16.1394 5.89915 18.1731 5.89915 22.0457V34.6803C5.89915 35.1562 5.52657 35.5457 5.0712 35.5457H0.827951C0.372578 35.5457 0 35.1562 0 34.6803V11.9639C0 11.488 0.372578 11.0985 0.827951 11.0985H3.08412C4.63652 11.0985 5.91985 12.4182 5.91985 14.0625C7.38946 12.0288 9.89401 10.7524 12.7918 10.7524C15.9794 10.7524 18.691 12.0072 20.3676 14.387C20.6988 14.8413 21.3404 14.8413 21.6716 14.387C23.3275 12.1803 26.039 10.7524 29.0197 10.7524C34.629 10.7524 38.6032 14.4519 38.6032 21.2019V34.6803C38.6032 35.1562 38.2306 35.5457 37.7753 35.5457H33.532C33.0766 35.5457 32.7041 35.1562 32.7041 34.6803V22.0457Z" fill="#049FA0"/>
<path d="M83.0227 11.7909C80.4768 11.6611 78.1171 12.375 76.1508 13.6947V5.5601C76.1508 2.48798 73.7704 0 70.8312 0V23.7764C70.8312 23.8197 70.8312 23.8413 70.8312 23.8846C70.8312 23.9279 70.8312 23.9495 70.8312 23.9928V24.6635H70.8519C71.2245 31.0024 76.275 36 82.4225 36C89.0047 36 94.3035 30.2668 94.0138 23.3221C93.724 17.1346 88.9426 12.1154 83.0227 11.7909ZM82.5053 29.9423C79.2763 29.9423 76.6475 27.1947 76.6475 23.8197C76.6475 20.4447 79.2763 17.6971 82.5053 17.6971C85.7343 17.6971 88.363 20.4447 88.363 23.8197C88.363 27.1947 85.7343 29.9423 82.5053 29.9423Z" fill="#049FA0"/>
</g>
<path d="M153.801 29.538C154.257 29.61 154.671 29.796 155.043 30.096C155.427 30.396 155.727 30.768 155.943 31.212C156.171 31.656 156.285 32.13 156.285 32.634C156.285 33.27 156.123 33.846 155.799 34.362C155.475 34.866 155.001 35.268 154.377 35.568C153.765 35.856 153.039 36 152.199 36H147.519V23.454H152.019C152.871 23.454 153.597 23.598 154.197 23.886C154.797 24.162 155.247 24.54 155.547 25.02C155.847 25.5 155.997 26.04 155.997 26.64C155.997 27.384 155.793 28.002 155.385 28.494C154.989 28.974 154.461 29.322 153.801 29.538ZM149.157 28.872H151.911C152.679 28.872 153.273 28.692 153.693 28.332C154.113 27.972 154.323 27.474 154.323 26.838C154.323 26.202 154.113 25.704 153.693 25.344C153.273 24.984 152.667 24.804 151.875 24.804H149.157V28.872ZM152.055 34.65C152.871 34.65 153.507 34.458 153.963 34.074C154.419 33.69 154.647 33.156 154.647 32.472C154.647 31.776 154.407 31.23 153.927 30.834C153.447 30.426 152.805 30.222 152.001 30.222H149.157V34.65H152.055ZM167.558 30.69C167.558 31.002 167.54 31.332 167.504 31.68H159.62C159.68 32.652 160.01 33.414 160.61 33.966C161.222 34.506 161.96 34.776 162.824 34.776C163.532 34.776 164.12 34.614 164.588 34.29C165.068 33.954 165.404 33.51 165.596 32.958H167.36C167.096 33.906 166.568 34.68 165.776 35.28C164.984 35.868 164 36.162 162.824 36.162C161.888 36.162 161.048 35.952 160.304 35.532C159.572 35.112 158.996 34.518 158.576 33.75C158.156 32.97 157.946 32.07 157.946 31.05C157.946 30.03 158.15 29.136 158.558 28.368C158.966 27.6 159.536 27.012 160.268 26.604C161.012 26.184 161.864 25.974 162.824 25.974C163.76 25.974 164.588 26.178 165.308 26.586C166.028 26.994 166.58 27.558 166.964 28.278C167.36 28.986 167.558 29.79 167.558 30.69ZM165.866 30.348C165.866 29.724 165.728 29.19 165.452 28.746C165.176 28.29 164.798 27.948 164.318 27.72C163.85 27.48 163.328 27.36 162.752 27.36C161.924 27.36 161.216 27.624 160.628 28.152C160.052 28.68 159.722 29.412 159.638 30.348H165.866ZM174.526 25.956C175.726 25.956 176.698 26.322 177.442 27.054C178.186 27.774 178.558 28.818 178.558 30.186V36H176.938V30.42C176.938 29.436 176.692 28.686 176.2 28.17C175.708 27.642 175.036 27.378 174.184 27.378C173.32 27.378 172.63 27.648 172.114 28.188C171.61 28.728 171.358 29.514 171.358 30.546V36H169.72V26.136H171.358V27.54C171.682 27.036 172.12 26.646 172.672 26.37C173.236 26.094 173.854 25.956 174.526 25.956ZM185.302 25.974C186.154 25.974 186.898 26.16 187.534 26.532C188.182 26.904 188.662 27.372 188.974 27.936V26.136H190.63V36.216C190.63 37.116 190.438 37.914 190.054 38.61C189.67 39.318 189.118 39.87 188.398 40.266C187.69 40.662 186.862 40.86 185.914 40.86C184.618 40.86 183.538 40.554 182.674 39.942C181.81 39.33 181.3 38.496 181.144 37.44H182.764C182.944 38.04 183.316 38.52 183.88 38.88C184.444 39.252 185.122 39.438 185.914 39.438C186.814 39.438 187.546 39.156 188.11 38.592C188.686 38.028 188.974 37.236 188.974 36.216V34.146C188.65 34.722 188.17 35.202 187.534 35.586C186.898 35.97 186.154 36.162 185.302 36.162C184.426 36.162 183.628 35.946 182.908 35.514C182.2 35.082 181.642 34.476 181.234 33.696C180.826 32.916 180.622 32.028 180.622 31.032C180.622 30.024 180.826 29.142 181.234 28.386C181.642 27.618 182.2 27.024 182.908 26.604C183.628 26.184 184.426 25.974 185.302 25.974ZM188.974 31.05C188.974 30.306 188.824 29.658 188.524 29.106C188.224 28.554 187.816 28.134 187.3 27.846C186.796 27.546 186.238 27.396 185.626 27.396C185.014 27.396 184.456 27.54 183.952 27.828C183.448 28.116 183.046 28.536 182.746 29.088C182.446 29.64 182.296 30.288 182.296 31.032C182.296 31.788 182.446 32.448 182.746 33.012C183.046 33.564 183.448 33.99 183.952 34.29C184.456 34.578 185.014 34.722 185.626 34.722C186.238 34.722 186.796 34.578 187.3 34.29C187.816 33.99 188.224 33.564 188.524 33.012C188.824 32.448 188.974 31.794 188.974 31.05ZM198.906 36L195.036 31.644V36H193.398V22.68H195.036V30.51L198.834 26.136H201.12L196.476 31.05L201.138 36H198.906ZM211.661 30.69C211.661 31.002 211.643 31.332 211.607 31.68H203.723C203.783 32.652 204.113 33.414 204.713 33.966C205.325 34.506 206.063 34.776 206.927 34.776C207.635 34.776 208.223 34.614 208.691 34.29C209.171 33.954 209.507 33.51 209.699 32.958H211.463C211.199 33.906 210.671 34.68 209.879 35.28C209.087 35.868 208.103 36.162 206.927 36.162C205.991 36.162 205.151 35.952 204.407 35.532C203.675 35.112 203.099 34.518 202.679 33.75C202.259 32.97 202.049 32.07 202.049 31.05C202.049 30.03 202.253 29.136 202.661 28.368C203.069 27.6 203.639 27.012 204.371 26.604C205.115 26.184 205.967 25.974 206.927 25.974C207.863 25.974 208.691 26.178 209.411 26.586C210.131 26.994 210.683 27.558 211.067 28.278C211.463 28.986 211.661 29.79 211.661 30.69ZM209.969 30.348C209.969 29.724 209.831 29.19 209.555 28.746C209.279 28.29 208.901 27.948 208.421 27.72C207.953 27.48 207.431 27.36 206.855 27.36C206.027 27.36 205.319 27.624 204.731 28.152C204.155 28.68 203.825 29.412 203.741 30.348H209.969ZM215.462 22.68V36H213.824V22.68H215.462Z" fill="#F9AD3C"/>
<defs>
<clipPath id="clip0">
<rect width="141" height="36" fill="white"/>
</clipPath>
</defs>
</svg>
